<svg width="1166" height="1010" viewBox="0 0 1166 1010" fill="none" xmlns="http://www.w3.org/2000/svg">
<path fill-rule="evenodd" clip-rule="evenodd" d="M861.85 205.662L875.958 207.073L703.567 379.144L700.607 377.529L696.74 367.874L689.984 368.839L687.234 367.808L849.542 205.801L855.094 215.317L861.85 205.662ZM510.393 558.089L514.663 567.698L410.979 671.19L407.985 664.199L406.911 656.685L407.985 650.24L402.615 653.463L401.244 653.267L496.139 558.548L498.806 563.88L510.393 558.089ZM404.763 673.862L410.078 672.089L364.618 717.464L358.597 707.146L351.63 702.789L390.518 663.974L390.808 664.199L398.323 659.903L404.763 666.343V673.862ZM518.787 577.711L370.435 725.788L372.555 728.615L380.072 737.207L382.812 738.381L518.668 602.778L518.114 602.501L523.91 594.78L518.787 577.711ZM734.485 387.361L732.726 389.117H721.848L712.72 384.137L886.891 210.289L897.577 215.317L911.093 208.558L913.471 208.707L741.607 380.252L739.228 379.458L734.485 387.361ZM528.099 607.493L391.248 744.09L394.026 746.87L401.545 754.384L405.968 757.037L528.737 634.496V619.88L531.635 609.261L528.099 607.493ZM419.796 767.269L414.458 762.691L531.11 646.256L535.497 657.536L542.254 661.402L542.933 662.421L425.819 779.317L419.796 767.269ZM434.832 784.449L436.973 785.52L443.413 783.372L450.931 789.812L454.728 792.23L557.321 689.827L552.876 684.573L549.979 672.986L548.59 670.903L434.832 784.449ZM471.33 806.993L463.225 797.878L564.165 697.125H574.118L577.98 705.815L579.668 706.538L478.103 807.914L477.771 805.919L471.33 806.993ZM472.277 827.859L472.16 835.197L478.916 842.922L482.888 844.908L599.16 728.851L591.497 711.611L589.57 710.784L472.277 827.859ZM487.61 855.474L486.667 855.265L607.589 734.567L610.81 736.715L618.53 747.333L620.671 749.474L517.906 852.048L512.71 851.616L515.875 854.076L506.777 863.157L497.264 860.301L487.61 855.474ZM534.248 849.866L534.92 849.683L547.472 845.82L558.091 842.922L568.353 843.464L636.39 775.553L631.086 771.473L629.153 757.956L627.742 756.545L534.248 849.866ZM579.337 849.683L574.233 851.724L572.408 853.545H581.266L594.787 854.51L599.649 857.426L661.297 795.892L656.19 790.785L644.384 781.703L578.318 847.646L579.337 849.683ZM668.369 802.963L607.274 863.945L611.197 868.991L618.922 873.822H625.069L682.128 816.869L681.295 815.889L668.369 802.963ZM642.097 881.547L634.383 878.653L688.625 824.512L697.709 835.197L701.952 839.176L658.535 882.512H656.578L642.097 881.547ZM669.601 885.596L673.961 891.201L679.753 894.099L683.507 899.355L725.392 857.547L713.159 849.683L709.251 846.019L669.601 885.596ZM689.407 907.616L689.398 907.603L740.246 856.85L750.811 864.164L749.731 872.27L700.308 921.601L697.132 917.27L689.407 907.616ZM706.291 929.759L707.755 931.755L712.582 933.684L718.373 943.342H720.373L754.623 909.156L752.744 906.651L746.952 894.099L747.655 888.471L706.291 929.759ZM728.996 949.134L728.888 948.972L760.684 917.235L764.331 922.097L774.95 927.893L775.596 930.315L748.498 957.364L746.375 955.895L737.686 951.068L728.996 949.134ZM756.856 963.15L758.927 964.584L767.617 974.238L770.233 977.437L793.6 954.114L789.435 952.032L778.813 942.374L778.573 941.474L756.856 963.15ZM781.133 980.994L779.569 982.247L803.021 958.839L816.264 968.772L789.505 995.481L786.929 991.617L789.823 985.826L781.133 980.994ZM795.239 1003.89L800.446 1009.97H809.135L828.161 1004.9L831.203 1004.92L829.223 995.345L827.092 986.79L822.001 977.174L795.239 1003.89ZM1112.3 429.59L1111.93 427.737H1104.2V409.704L1052.26 461.55L1055.93 464.429L1074.16 464.9L1076.72 465.106L1087.44 454.408L1084.89 450.912L1091.65 443.187L1095.86 445.994L1112.3 429.59ZM1122.55 373.667H1126.15L1143.29 356.559L1132.2 353.39L1131.24 346.632L1123.92 348.258L1043.33 428.695L1043.37 428.702L1044.34 441.254H1035.65L1042.41 453.806L1044.34 455.326L1102.42 397.356L1101.31 391.046L1096.48 380.427L1113.86 378.494L1111.93 365.943L1122.55 373.667ZM1146.69 371.736L1141.61 372.371L1156.75 357.253H1163.1L1166 371.736H1146.69ZM1113.26 344.764L1031.47 426.405L1020.2 413.256L1019.72 407.06L1098.14 328.789L1101.31 339.872L1113.26 344.764ZM1085.86 326.355H1086.42L1005.5 407.13L1001.86 401.668L991.236 399.735L992.201 412.287L978.684 407.46L978.107 406.83L1082.65 302.478L1087.79 307.045L1077.17 311.872L1076.2 319.596L1085.86 326.355ZM1084.28 286.73L1081.03 285.803L1080.34 290.662L971.343 399.452L968.062 395.873L952.612 399.735L946.236 396.548L1068.6 274.411L1069.45 275.181L1082.96 266.491L1085.86 272.284L1094.45 276.579L1084.28 286.73ZM1098.39 286.77L1098.41 286.768L1098.41 286.753L1098.39 286.77ZM1058.82 265.526L1061.19 267.677L937.618 391.021L934.268 388.148L926.543 392.979V402.075L923.909 404.705L908.195 405.531L901.374 399.558L1069.17 232.076L1072.34 233.662V240.421L1063.65 251.042L1058.82 265.526ZM1067.68 219.431L1062.69 220.145L1063.4 223.706L897.6 389.196L897.577 389.117H889.852L883.091 387.183L876.335 396.841L871.508 407.46L857.987 416.15L849.955 411.865L1064.35 197.869L1070.41 205.662L1069.46 219.041L1068.76 218.349L1067.68 219.431ZM1051.1 186.351L1056.85 191.221L840.558 407.116L834.817 404.566L823.659 396.344L1044.74 175.677L1040.99 171.924L1042.41 169.936H1049.17L1057.86 165.109L1053.03 176.694L1058.82 182.488L1051.1 186.351ZM1031.63 174.626L1015.37 168.971L1007.65 178.626L998.957 196.006L983.512 204.696L977.716 203.73L973.853 211.455L965.164 217.248L962.035 216.131L783.213 394.621L784.608 399.735L797.161 397.806L807.201 398.642L1031.63 174.626ZM939.095 215.317L947.092 216.917L772.64 391.046H758.536L751.07 384.936L926.724 209.607L939.095 215.317ZM811.642 179.591L812.815 186.237L625.194 373.51L624.326 373.667L608.876 366.908L603.799 367.225L801.012 170.378L811.642 179.591ZM480.458 516.57L480.722 517.713L370.135 628.095L366.113 624.475L353.192 617.368L459.545 511.212L461.15 510.774L468.875 504.983L471.769 516.57H480.458ZM483.419 529.151L377.681 634.692L383.29 638.43L389.734 637.356L392.956 644.874L393.52 646.848L499.155 541.409L495.908 534.914L483.419 529.151ZM345.406 694.872L382.562 657.786L381.146 656.685L387.89 652.468L389.562 650.799L387.586 644.874L380.072 640.578L370.408 642.726L369.931 642.428L333.822 678.47L338.198 684.598L343.567 692.113L345.406 694.872ZM839.487 201.708L678.606 362.291L675.499 359.184L672.605 352.426L665.845 361.115L658.12 365.943L657.155 378.494L642.67 376.565L638.747 374.111L816.69 196.498L839.487 201.708ZM356.45 633.064L361.285 636.929L327.79 670.362L326.387 668.491L318.872 665.273V658.829L322.093 651.315L320.736 649.764L327.506 643.006L330.682 643.8L329.691 640.825L334.92 635.605L339.272 640.578L348.934 643.8V635.208L344.639 628.767V625.904L346.43 624.117L350.008 627.693L356.45 633.064ZM750.811 158.349L756.54 161.622L515.197 402.517L513.287 401.668L505.744 384.314L743.625 146.874L745.984 151.591L750.811 158.349ZM439.904 462.499L445.978 471.608L326.438 590.926L314.452 575.251L436.788 453.142L439.904 462.499ZM438.509 493.192L332.846 598.659L344.233 612.181L447.848 508.758L444.735 503.049L438.509 493.192ZM314.767 641.593L318.069 638.297L315.651 636.282L314.767 641.593ZM544.954 425.961L567.356 403.601L559.633 421.946L558.668 428.702L544.954 425.961ZM791.509 165.735L535.835 420.935L532.6 419.048L523.892 407.968L767.668 164.644L771.088 163.177L784.608 164.143L791.509 165.735ZM738.385 137.975L734.401 132.28L727.64 126.487L728.597 119.779L480.826 367.091L486.254 369.805L494.944 368.839L497.219 378.694L738.385 137.975ZM445.347 430.47L440.873 416.15L446.665 405.531L447.967 399.889L293.806 553.764L297.399 555.759L304.915 566.496L307.128 568.432L445.347 430.47ZM720.88 106.21L720.285 113.947L463.952 369.805H456.323L446.665 380.427L447.909 385.818L286.5 546.928L282.368 535.36L276.388 529.381L707.207 99.3617L715.088 98.4865L720.88 106.21ZM698.193 94.2297L685.157 85.9333L678.436 82.8792L268.304 492.25L269.485 499.928L270.558 507.447L268.411 514.961L271.164 520.467L698.193 94.2297ZM665.845 71.4509L670.522 76.6487L267.338 479.086V473.089L269.485 464.5L274.852 448.393V443.946L661.41 58.1054L662.947 61.7943L665.845 71.4509ZM656.398 48.9791L651.359 45.3806L639.776 43.4489L635.875 41.4986L265.177 411.508L268.411 417.258L273.159 431.506L656.398 48.9791ZM627.224 31.8635L628.818 34.4135L260.087 402.46L258.749 400.081L243.127 391.75L329.501 305.535L334.662 308.975L348.179 298.355L356.869 302.217L364.594 291.595L353.617 281.464L616.373 19.1961L622.397 22.207L627.224 31.8635ZM603.075 18.3401L592.462 12.5515L587.353 9.14524L430.25 165.957V168.006L425.423 178.626L430.25 186.351V190.844L603.075 18.3401ZM422.215 198.864L400.056 196.094L360.933 235.145L362.663 233.662L370.386 248.146L356.869 250.077L348.179 260.698L350.19 270.755L422.215 198.864ZM318.932 301.956L306.048 289.928L222.894 372.928L225.465 376.463L231.906 381.83L235.016 385.717L318.932 301.956ZM572.185 1.93174L578.362 3.99002L545.135 37.1556L541.289 32.829L542.254 22.207L539.987 14.6549L552.665 2.00071L558.668 0L572.185 1.93174ZM529.702 43.4489L539.846 42.4352L430.25 151.827V145.798L436.046 136.142L425.423 131.314L424.373 130.054L483.918 70.6203L493.01 67.588L507.495 56.9676L506.787 47.7929L510.628 43.9596L515.22 43.4489L521.977 37.6557L529.702 43.4489ZM362.663 215.317L368.239 213.723L350.637 231.293L345.283 225.939L362.663 215.317ZM287.35 287.733H294.092L216.941 364.741L216.876 364.651L209.361 354.988V348.547L203.992 351.768L202.946 351.07L258.028 296.091L274.798 292.561L277.695 280.009L287.35 287.733ZM123.508 288.865L120.31 289.665L113.55 286.768L105.827 280.009L104.814 279.559L92.3826 291.967L91.3433 293.527L90.6707 293.676L15.0304 369.176V376.463L16.1049 386.122L24.6938 385.052L26.7931 385.401L123.508 288.865ZM23.9185 388.27H21.4724L20.9847 391.198L23.9185 388.27ZM21.7973 404.516L28.988 407.599L33.2826 417.258L35.6704 420.044L167.418 288.541L165.691 288.698L152.172 286.768L143.906 282.634L21.7973 404.516ZM70.1008 299.32L70.5757 299.605L15.3212 354.757L12.8831 350.694L16.1049 345.325L13.9576 339.957L18.2518 334.589L9.57495 332.853L51.635 290.871L55.6177 291.595L63.3426 297.388L70.1008 299.32ZM37.5393 290.812L32.4453 291.595L25.6853 287.733L18.4742 285.329L16.9314 287.417L17.1777 291.643L10.7362 284.128L3.22141 280.907L0 287.348L3.22141 292.717V306.675L8.74196 319.556L37.5393 290.812ZM460.181 77.2446L463.421 76.9498L417.946 122.341L415.769 119.729L412.871 106.21L420.596 95.5894L427.352 86.8996L439.904 87.8649L447.629 89.7961L450.527 82.0712L460.181 77.2446ZM251.624 286.768L252.153 287.826L194.46 345.412L191.109 343.178L179.298 336.736L176.272 335.601L235.387 276.596L240.037 277.113L245.831 283.871L251.624 286.768ZM121.322 414.039L122.914 416.825L110.449 429.267L109.512 426.924L104.144 424.776V417.258L103.07 423.702L105.217 429.068V434.439L105.141 434.565L64.736 474.895L60.1237 470.94L54.7563 463.426L61.1982 465.574L59.0509 458.06L54.9541 456.694L145.793 366.023L144.942 375.389L141.721 385.052L136.353 394.714L130.985 392.566L133.132 399.007L125.617 406.525L121.322 414.039ZM77.1582 476.625L90.6741 463.134L91.2595 464.5L86.9649 474.163L89.1122 479.533L79.45 478.459L77.1582 476.625ZM125.617 428.257L118.347 435.513H121.322L125.617 429.068V428.257ZM230.543 267.301L230.382 265.526L217.042 253.138L42.4025 427.454L49.3876 434.439L52.1252 445.388L153.572 344.13L155.679 337.81L162.121 330.294L165.982 331.742L230.543 267.301ZM216.865 236.559V239.186L196.588 259.425V255.871L204.313 249.111L207.208 239.456L216.865 236.559Z" fill="#121316"/>
</svg>
