<?xml version="1.0" encoding="UTF-8"?>
<svg id="Layer_2" data-name="Layer 2" xmlns="http://www.w3.org/2000/svg" viewBox="0 0 1149.75 786.34">
  <defs>
    <style>
      .cls-1 {
        fill: #cccccb;
        stroke-width: 0px;
      }
    </style>
  </defs>
  <rect class="cls-1" x="233.66" y="413.81" width="324.04" height="93.1" rx="45" ry="45" transform="translate(-64.68 856.04) rotate(-90)"/>
  <rect class="cls-1" x="349.13" y="529.28" width="226.22" height="93.1" rx="45" ry="45"/>
  <rect class="cls-1" x="349.13" y="298.34" width="226.22" height="93.1" rx="45" ry="45"/>
  <path class="cls-1" d="m621.75,343.34v3.1c0,22.66-16.76,41.41-38.55,44.53,2.11.3,4.26.47,6.45.47h136.22c24.85,0,45-20.15,45-45v-3.1c0-24.85-20.15-45-45-45h-136.22c-2.19,0-4.34.16-6.45.47,21.8,3.13,38.55,21.87,38.55,44.53Z"/>
  <path class="cls-1" d="m747.75,343.34v3.1c0,22.66-16.76,41.41-38.55,44.53,2.11.3,4.26.47,6.45.47h136.22c24.85,0,45-20.15,45-45v-3.1c0-24.85-20.15-45-45-45h-136.22c-2.19,0-4.34.16-6.45.47,21.8,3.13,38.55,21.87,38.55,44.53Z"/>
  <rect class="cls-1" x="551.03" y="413.81" width="324.04" height="93.1" rx="45" ry="45" transform="translate(252.69 1173.41) rotate(-90)"/>
  <path class="cls-1" d="m987.59,362.64l-121.88,70.36c-13.66,7.89-30.74-1.97-30.74-17.75v-140.73c0-15.77,17.08-25.63,30.74-17.75l121.88,70.36c13.66,7.89,13.66,27.61,0,35.49Z"/>
</svg>