<svg width="618" height="352" viewBox="0 0 618 352" fill="none" xmlns="http://www.w3.org/2000/svg">
<path d="M8.7017 328.545H11.3267V340.92C11.3267 342.04 11.1051 342.997 10.6619 343.793C10.2244 344.588 9.60795 345.196 8.8125 345.616C8.01705 346.031 7.08523 346.239 6.01705 346.239C5.03409 346.239 4.15057 346.06 3.36648 345.702C2.58807 345.344 1.97159 344.824 1.51705 344.142C1.06818 343.455 0.84375 342.619 0.84375 341.636H3.46023C3.46023 342.119 3.57102 342.537 3.79261 342.889C4.01989 343.241 4.32955 343.517 4.72159 343.716C5.11932 343.909 5.57386 344.006 6.08523 344.006C6.64205 344.006 7.11364 343.889 7.5 343.656C7.89205 343.418 8.19034 343.068 8.39489 342.608C8.59943 342.148 8.7017 341.585 8.7017 340.92V328.545ZM18.7649 346.29C17.9354 346.29 17.1854 346.136 16.5149 345.83C15.8445 345.517 15.3132 345.065 14.9212 344.474C14.5348 343.884 14.3416 343.159 14.3416 342.301C14.3416 341.562 14.4837 340.955 14.7678 340.477C15.0518 340 15.4354 339.622 15.9183 339.344C16.4013 339.065 16.9411 338.855 17.5376 338.713C18.1342 338.571 18.7422 338.463 19.3615 338.389C20.1456 338.298 20.782 338.224 21.2706 338.168C21.7592 338.105 22.1143 338.006 22.3359 337.869C22.5575 337.733 22.6683 337.511 22.6683 337.205V337.145C22.6683 336.401 22.4581 335.824 22.0376 335.415C21.6229 335.006 21.0036 334.801 20.1797 334.801C19.3217 334.801 18.6456 334.991 18.1513 335.372C17.6626 335.747 17.3246 336.165 17.1371 336.625L14.7422 336.08C15.0263 335.284 15.4411 334.642 15.9865 334.153C16.5376 333.659 17.1712 333.301 17.8871 333.08C18.603 332.852 19.3558 332.739 20.1456 332.739C20.6683 332.739 21.2223 332.801 21.8075 332.926C22.3984 333.045 22.9496 333.267 23.4609 333.591C23.978 333.915 24.4013 334.378 24.7308 334.98C25.0604 335.577 25.2251 336.352 25.2251 337.307V346H22.7365V344.21H22.6342C22.4695 344.54 22.2223 344.864 21.8928 345.182C21.5632 345.5 21.1399 345.764 20.6229 345.974C20.1058 346.185 19.4865 346.29 18.7649 346.29ZM19.3189 344.244C20.0234 344.244 20.6257 344.105 21.1257 343.827C21.6314 343.548 22.0149 343.185 22.2763 342.736C22.5433 342.281 22.6768 341.795 22.6768 341.278V339.591C22.5859 339.682 22.4098 339.767 22.1484 339.847C21.8928 339.92 21.6001 339.986 21.2706 340.043C20.9411 340.094 20.62 340.142 20.3075 340.188C19.995 340.227 19.7337 340.261 19.5234 340.29C19.0291 340.352 18.5774 340.457 18.1683 340.605C17.7649 340.753 17.4411 340.966 17.1967 341.244C16.9581 341.517 16.8388 341.881 16.8388 342.335C16.8388 342.966 17.0717 343.443 17.5376 343.767C18.0036 344.085 18.5973 344.244 19.3189 344.244ZM31.1676 338.227V346H28.6193V332.909H31.0653V335.04H31.2273C31.5284 334.347 32 333.79 32.642 333.369C33.2898 332.949 34.1051 332.739 35.0881 332.739C35.9801 332.739 36.7614 332.926 37.4318 333.301C38.1023 333.67 38.6222 334.222 38.9915 334.955C39.3608 335.687 39.5455 336.594 39.5455 337.673V346H36.9972V337.98C36.9972 337.031 36.75 336.29 36.2557 335.756C35.7614 335.216 35.0824 334.946 34.2188 334.946C33.6278 334.946 33.1023 335.074 32.642 335.33C32.1875 335.585 31.8267 335.96 31.5597 336.455C31.2983 336.943 31.1676 337.534 31.1676 338.227Z" fill="#6A6B6D"/>
<path d="M97.9176 346V328.545H108.741V330.812H100.551V336.131H107.966V338.389H100.551V346H97.9176ZM116.457 346.264C115.167 346.264 114.056 345.989 113.124 345.438C112.198 344.881 111.482 344.099 110.977 343.094C110.477 342.082 110.227 340.898 110.227 339.54C110.227 338.199 110.477 337.017 110.977 335.994C111.482 334.972 112.187 334.173 113.09 333.599C113.999 333.026 115.062 332.739 116.278 332.739C117.016 332.739 117.732 332.861 118.425 333.105C119.119 333.349 119.741 333.733 120.292 334.256C120.843 334.778 121.278 335.457 121.596 336.293C121.914 337.122 122.073 338.131 122.073 339.318V340.222H111.667V338.312H119.576C119.576 337.642 119.44 337.048 119.167 336.531C118.894 336.009 118.511 335.597 118.016 335.295C117.528 334.994 116.954 334.844 116.295 334.844C115.579 334.844 114.954 335.02 114.42 335.372C113.891 335.719 113.482 336.173 113.192 336.736C112.908 337.293 112.766 337.898 112.766 338.551V340.043C112.766 340.918 112.92 341.662 113.227 342.276C113.539 342.889 113.974 343.358 114.531 343.682C115.087 344 115.738 344.159 116.482 344.159C116.965 344.159 117.406 344.091 117.803 343.955C118.201 343.812 118.545 343.602 118.835 343.324C119.124 343.045 119.346 342.702 119.499 342.293L121.911 342.727C121.718 343.437 121.371 344.06 120.871 344.594C120.377 345.122 119.755 345.534 119.005 345.83C118.261 346.119 117.411 346.264 116.457 346.264ZM125.105 346V328.545H127.653V335.031H127.807C127.955 334.759 128.168 334.443 128.446 334.085C128.724 333.727 129.111 333.415 129.605 333.148C130.099 332.875 130.753 332.739 131.565 332.739C132.622 332.739 133.565 333.006 134.395 333.54C135.224 334.074 135.875 334.844 136.347 335.849C136.824 336.855 137.062 338.065 137.062 339.48C137.062 340.895 136.827 342.108 136.355 343.119C135.884 344.125 135.236 344.901 134.412 345.446C133.588 345.986 132.648 346.256 131.591 346.256C130.795 346.256 130.145 346.122 129.639 345.855C129.139 345.588 128.747 345.276 128.463 344.918C128.179 344.56 127.96 344.241 127.807 343.963H127.594V346H125.105ZM127.602 339.455C127.602 340.375 127.736 341.182 128.003 341.875C128.27 342.568 128.656 343.111 129.162 343.503C129.668 343.889 130.287 344.082 131.02 344.082C131.781 344.082 132.418 343.881 132.929 343.477C133.44 343.068 133.827 342.514 134.088 341.815C134.355 341.116 134.489 340.33 134.489 339.455C134.489 338.591 134.358 337.815 134.097 337.128C133.841 336.44 133.455 335.898 132.938 335.5C132.426 335.102 131.787 334.903 131.02 334.903C130.281 334.903 129.656 335.094 129.145 335.474C128.639 335.855 128.256 336.386 127.994 337.068C127.733 337.75 127.602 338.545 127.602 339.455Z" fill="#6A6B6D"/>
<path d="M191.918 328.545H195.114L200.67 342.114H200.875L206.432 328.545H209.628V346H207.122V333.369H206.96L201.812 345.974H199.733L194.585 333.361H194.423V346H191.918V328.545ZM217.062 346.29C216.232 346.29 215.482 346.136 214.812 345.83C214.141 345.517 213.61 345.065 213.218 344.474C212.832 343.884 212.638 343.159 212.638 342.301C212.638 341.562 212.781 340.955 213.065 340.477C213.349 340 213.732 339.622 214.215 339.344C214.698 339.065 215.238 338.855 215.835 338.713C216.431 338.571 217.039 338.463 217.658 338.389C218.442 338.298 219.079 338.224 219.567 338.168C220.056 338.105 220.411 338.006 220.633 337.869C220.854 337.733 220.965 337.511 220.965 337.205V337.145C220.965 336.401 220.755 335.824 220.335 335.415C219.92 335.006 219.3 334.801 218.477 334.801C217.619 334.801 216.942 334.991 216.448 335.372C215.96 335.747 215.621 336.165 215.434 336.625L213.039 336.08C213.323 335.284 213.738 334.642 214.283 334.153C214.835 333.659 215.468 333.301 216.184 333.08C216.9 332.852 217.653 332.739 218.442 332.739C218.965 332.739 219.519 332.801 220.104 332.926C220.695 333.045 221.246 333.267 221.758 333.591C222.275 333.915 222.698 334.378 223.028 334.98C223.357 335.577 223.522 336.352 223.522 337.307V346H221.033V344.21H220.931C220.766 344.54 220.519 344.864 220.19 345.182C219.86 345.5 219.437 345.764 218.92 345.974C218.403 346.185 217.783 346.29 217.062 346.29ZM217.616 344.244C218.32 344.244 218.923 344.105 219.423 343.827C219.928 343.548 220.312 343.185 220.573 342.736C220.84 342.281 220.974 341.795 220.974 341.278V339.591C220.883 339.682 220.707 339.767 220.445 339.847C220.19 339.92 219.897 339.986 219.567 340.043C219.238 340.094 218.917 340.142 218.604 340.188C218.292 340.227 218.031 340.261 217.82 340.29C217.326 340.352 216.874 340.457 216.465 340.605C216.062 340.753 215.738 340.966 215.494 341.244C215.255 341.517 215.136 341.881 215.136 342.335C215.136 342.966 215.369 343.443 215.835 343.767C216.3 344.085 216.894 344.244 217.616 344.244ZM226.916 346V332.909H229.379V334.989H229.516C229.754 334.284 230.175 333.73 230.777 333.327C231.385 332.918 232.072 332.713 232.839 332.713C232.999 332.713 233.186 332.719 233.402 332.73C233.624 332.741 233.797 332.756 233.922 332.773V335.21C233.82 335.182 233.638 335.151 233.376 335.116C233.115 335.077 232.854 335.057 232.592 335.057C231.99 335.057 231.453 335.185 230.982 335.44C230.516 335.69 230.146 336.04 229.874 336.489C229.601 336.932 229.464 337.437 229.464 338.006V346H226.916Z" fill="#6A6B6D"/>
<path d="M293.702 328.545H296.327V340.92C296.327 342.04 296.105 342.997 295.662 343.793C295.224 344.588 294.608 345.196 293.812 345.616C293.017 346.031 292.085 346.239 291.017 346.239C290.034 346.239 289.151 346.06 288.366 345.702C287.588 345.344 286.972 344.824 286.517 344.142C286.068 343.455 285.844 342.619 285.844 341.636H288.46C288.46 342.119 288.571 342.537 288.793 342.889C289.02 343.241 289.33 343.517 289.722 343.716C290.119 343.909 290.574 344.006 291.085 344.006C291.642 344.006 292.114 343.889 292.5 343.656C292.892 343.418 293.19 343.068 293.395 342.608C293.599 342.148 293.702 341.585 293.702 340.92V328.545ZM308.248 340.571V332.909H310.805V346H308.299V343.733H308.163C307.862 344.432 307.379 345.014 306.714 345.48C306.055 345.94 305.234 346.17 304.251 346.17C303.41 346.17 302.665 345.986 302.018 345.616C301.376 345.241 300.87 344.688 300.501 343.955C300.137 343.222 299.955 342.315 299.955 341.236V332.909H302.504V340.929C302.504 341.821 302.751 342.531 303.245 343.06C303.739 343.588 304.381 343.852 305.171 343.852C305.648 343.852 306.123 343.733 306.594 343.494C307.072 343.256 307.467 342.895 307.779 342.412C308.097 341.929 308.254 341.315 308.248 340.571ZM316.777 338.227V346H314.229V332.909H316.675V335.04H316.837C317.138 334.347 317.609 333.79 318.251 333.369C318.899 332.949 319.714 332.739 320.697 332.739C321.589 332.739 322.371 332.926 323.041 333.301C323.712 333.67 324.232 334.222 324.601 334.955C324.97 335.687 325.155 336.594 325.155 337.673V346H322.607V337.98C322.607 337.031 322.359 336.29 321.865 335.756C321.371 335.216 320.692 334.946 319.828 334.946C319.237 334.946 318.712 335.074 318.251 335.33C317.797 335.585 317.436 335.96 317.169 336.455C316.908 336.943 316.777 337.534 316.777 338.227Z" fill="#6A6B6D"/>
<path d="M394.702 328.545H397.327V340.92C397.327 342.04 397.105 342.997 396.662 343.793C396.224 344.588 395.608 345.196 394.812 345.616C394.017 346.031 393.085 346.239 392.017 346.239C391.034 346.239 390.151 346.06 389.366 345.702C388.588 345.344 387.972 344.824 387.517 344.142C387.068 343.455 386.844 342.619 386.844 341.636H389.46C389.46 342.119 389.571 342.537 389.793 342.889C390.02 343.241 390.33 343.517 390.722 343.716C391.119 343.909 391.574 344.006 392.085 344.006C392.642 344.006 393.114 343.889 393.5 343.656C393.892 343.418 394.19 343.068 394.395 342.608C394.599 342.148 394.702 341.585 394.702 340.92V328.545ZM409.248 340.571V332.909H411.805V346H409.299V343.733H409.163C408.862 344.432 408.379 345.014 407.714 345.48C407.055 345.94 406.234 346.17 405.251 346.17C404.41 346.17 403.665 345.986 403.018 345.616C402.376 345.241 401.87 344.688 401.501 343.955C401.137 343.222 400.955 342.315 400.955 341.236V332.909H403.504V340.929C403.504 341.821 403.751 342.531 404.245 343.06C404.739 343.588 405.381 343.852 406.171 343.852C406.648 343.852 407.123 343.733 407.594 343.494C408.072 343.256 408.467 342.895 408.779 342.412C409.097 341.929 409.254 341.315 409.248 340.571ZM417.777 328.545V346H415.229V328.545H417.777Z" fill="#6A6B6D"/>
<path d="M478.392 346H475.597L481.878 328.545H484.92L491.202 346H488.406L483.472 331.716H483.335L478.392 346ZM478.861 339.165H487.929V341.381H478.861V339.165ZM501.81 340.571V332.909H504.367V346H501.862V343.733H501.725C501.424 344.432 500.941 345.014 500.276 345.48C499.617 345.94 498.796 346.17 497.813 346.17C496.972 346.17 496.228 345.986 495.58 345.616C494.938 345.241 494.433 344.688 494.063 343.955C493.7 343.222 493.518 342.315 493.518 341.236V332.909H496.066V340.929C496.066 341.821 496.313 342.531 496.808 343.06C497.302 343.588 497.944 343.852 498.734 343.852C499.211 343.852 499.685 343.733 500.157 343.494C500.634 343.256 501.029 342.895 501.342 342.412C501.66 341.929 501.816 341.315 501.81 340.571ZM513.28 351.182C512.24 351.182 511.345 351.045 510.595 350.773C509.851 350.5 509.243 350.139 508.771 349.69C508.3 349.241 507.947 348.75 507.714 348.216L509.905 347.312C510.058 347.562 510.263 347.827 510.518 348.105C510.78 348.389 511.132 348.631 511.575 348.83C512.024 349.028 512.601 349.128 513.305 349.128C514.271 349.128 515.07 348.892 515.7 348.42C516.331 347.955 516.646 347.21 516.646 346.188V343.614H516.484C516.331 343.892 516.109 344.202 515.82 344.543C515.536 344.884 515.143 345.179 514.643 345.429C514.143 345.679 513.493 345.804 512.692 345.804C511.658 345.804 510.726 345.562 509.896 345.08C509.072 344.591 508.419 343.872 507.936 342.923C507.459 341.969 507.22 340.795 507.22 339.403C507.22 338.011 507.456 336.818 507.928 335.824C508.405 334.83 509.058 334.068 509.888 333.54C510.717 333.006 511.658 332.739 512.709 332.739C513.521 332.739 514.178 332.875 514.678 333.148C515.178 333.415 515.567 333.727 515.845 334.085C516.129 334.443 516.348 334.759 516.501 335.031H516.689V332.909H519.186V346.29C519.186 347.415 518.925 348.338 518.402 349.06C517.879 349.781 517.172 350.315 516.28 350.662C515.393 351.009 514.393 351.182 513.28 351.182ZM513.254 343.69C513.987 343.69 514.607 343.52 515.112 343.179C515.624 342.832 516.01 342.338 516.271 341.696C516.538 341.048 516.672 340.273 516.672 339.369C516.672 338.489 516.541 337.713 516.28 337.043C516.018 336.372 515.635 335.849 515.129 335.474C514.624 335.094 513.999 334.903 513.254 334.903C512.487 334.903 511.848 335.102 511.337 335.5C510.825 335.892 510.439 336.426 510.178 337.102C509.922 337.778 509.794 338.534 509.794 339.369C509.794 340.227 509.925 340.98 510.186 341.628C510.447 342.276 510.834 342.781 511.345 343.145C511.862 343.509 512.499 343.69 513.254 343.69Z" fill="#6A6B6D"/>
<path d="M584.438 333.131C584.347 332.324 583.972 331.699 583.312 331.256C582.653 330.807 581.824 330.582 580.824 330.582C580.108 330.582 579.489 330.696 578.966 330.923C578.443 331.145 578.037 331.452 577.747 331.844C577.463 332.23 577.321 332.67 577.321 333.165C577.321 333.58 577.418 333.937 577.611 334.239C577.81 334.54 578.068 334.793 578.386 334.997C578.71 335.196 579.057 335.364 579.426 335.5C579.795 335.631 580.151 335.739 580.491 335.824L582.196 336.267C582.753 336.403 583.324 336.588 583.909 336.821C584.494 337.054 585.037 337.361 585.537 337.741C586.037 338.122 586.44 338.594 586.747 339.156C587.06 339.719 587.216 340.392 587.216 341.176C587.216 342.165 586.96 343.043 586.449 343.81C585.943 344.577 585.207 345.182 584.241 345.625C583.281 346.068 582.119 346.29 580.756 346.29C579.449 346.29 578.318 346.082 577.364 345.668C576.409 345.253 575.662 344.665 575.122 343.903C574.582 343.136 574.284 342.227 574.227 341.176H576.869C576.92 341.807 577.125 342.332 577.483 342.753C577.847 343.168 578.31 343.477 578.872 343.682C579.44 343.881 580.062 343.98 580.739 343.98C581.483 343.98 582.145 343.864 582.724 343.631C583.31 343.392 583.77 343.062 584.105 342.642C584.44 342.216 584.608 341.719 584.608 341.151C584.608 340.634 584.46 340.21 584.165 339.881C583.875 339.551 583.48 339.278 582.98 339.062C582.486 338.847 581.926 338.656 581.301 338.491L579.239 337.929C577.841 337.548 576.733 336.989 575.915 336.25C575.102 335.511 574.696 334.534 574.696 333.318C574.696 332.312 574.969 331.435 575.514 330.685C576.06 329.935 576.798 329.352 577.73 328.938C578.662 328.517 579.713 328.307 580.884 328.307C582.065 328.307 583.108 328.514 584.011 328.929C584.92 329.344 585.636 329.915 586.159 330.642C586.682 331.364 586.955 332.193 586.977 333.131H584.438ZM595.8 346.264C594.511 346.264 593.4 345.989 592.468 345.438C591.542 344.881 590.826 344.099 590.32 343.094C589.82 342.082 589.57 340.898 589.57 339.54C589.57 338.199 589.82 337.017 590.32 335.994C590.826 334.972 591.531 334.173 592.434 333.599C593.343 333.026 594.406 332.739 595.621 332.739C596.36 332.739 597.076 332.861 597.769 333.105C598.462 333.349 599.085 333.733 599.636 334.256C600.187 334.778 600.621 335.457 600.94 336.293C601.258 337.122 601.417 338.131 601.417 339.318V340.222H591.011V338.312H598.92C598.92 337.642 598.783 337.048 598.511 336.531C598.238 336.009 597.854 335.597 597.36 335.295C596.871 334.994 596.298 334.844 595.638 334.844C594.923 334.844 594.298 335.02 593.763 335.372C593.235 335.719 592.826 336.173 592.536 336.736C592.252 337.293 592.11 337.898 592.11 338.551V340.043C592.11 340.918 592.263 341.662 592.57 342.276C592.883 342.889 593.317 343.358 593.874 343.682C594.431 344 595.082 344.159 595.826 344.159C596.309 344.159 596.749 344.091 597.147 343.955C597.545 343.812 597.888 343.602 598.178 343.324C598.468 343.045 598.69 342.702 598.843 342.293L601.255 342.727C601.062 343.437 600.715 344.06 600.215 344.594C599.721 345.122 599.099 345.534 598.349 345.83C597.604 346.119 596.755 346.264 595.8 346.264ZM604.244 350.909V332.909H606.733V335.031H606.946C607.094 334.759 607.307 334.443 607.585 334.085C607.864 333.727 608.25 333.415 608.744 333.148C609.239 332.875 609.892 332.739 610.705 332.739C611.761 332.739 612.705 333.006 613.534 333.54C614.364 334.074 615.014 334.844 615.486 335.849C615.963 336.855 616.202 338.065 616.202 339.48C616.202 340.895 615.966 342.108 615.494 343.119C615.023 344.125 614.375 344.901 613.551 345.446C612.727 345.986 611.787 346.256 610.73 346.256C609.935 346.256 609.284 346.122 608.778 345.855C608.278 345.588 607.886 345.276 607.602 344.918C607.318 344.56 607.099 344.241 606.946 343.963H606.793V350.909H604.244ZM606.741 339.455C606.741 340.375 606.875 341.182 607.142 341.875C607.409 342.568 607.795 343.111 608.301 343.503C608.807 343.889 609.426 344.082 610.159 344.082C610.92 344.082 611.557 343.881 612.068 343.477C612.58 343.068 612.966 342.514 613.227 341.815C613.494 341.116 613.628 340.33 613.628 339.455C613.628 338.591 613.497 337.815 613.236 337.128C612.98 336.44 612.594 335.898 612.077 335.5C611.565 335.102 610.926 334.903 610.159 334.903C609.42 334.903 608.795 335.094 608.284 335.474C607.778 335.855 607.395 336.386 607.134 337.068C606.872 337.75 606.741 338.545 606.741 339.455Z" fill="#6A6B6D"/>
<line x1="20.5" y1="308" x2="20.5" y2="6.55671e-08" stroke="url(#paint0_linear_0_1)" stroke-width="3"/>
<circle cx="20" cy="308" r="6" fill="#6A6B6D"/>
<line x1="117.5" y1="308" x2="117.5" y2="6.55671e-08" stroke="url(#paint1_linear_0_1)" stroke-width="3"/>
<circle cx="117" cy="308" r="6" fill="#6A6B6D"/>
<line x1="213.5" y1="308" x2="213.5" y2="6.55671e-08" stroke="url(#paint2_linear_0_1)" stroke-width="3"/>
<circle cx="213" cy="308" r="6" fill="#6A6B6D"/>
<line x1="307.5" y1="308" x2="307.5" y2="6.55671e-08" stroke="url(#paint3_linear_0_1)" stroke-width="3"/>
<circle cx="307" cy="308" r="6" fill="#6A6B6D"/>
<line x1="404.5" y1="308" x2="404.5" y2="6.55671e-08" stroke="url(#paint4_linear_0_1)" stroke-width="3"/>
<circle cx="404" cy="308" r="6" fill="#6A6B6D"/>
<line x1="499.5" y1="308" x2="499.5" y2="6.55671e-08" stroke="url(#paint5_linear_0_1)" stroke-width="3"/>
<circle cx="499" cy="308" r="6" fill="#6A6B6D"/>
<line x1="596.5" y1="308" x2="596.5" y2="6.55671e-08" stroke="url(#paint6_linear_0_1)" stroke-width="3"/>
<circle cx="596" cy="308" r="6" fill="#6A6B6D"/>
<path d="M18 207.922C40.3729 215.772 90.5957 230.936 112.503 228.795C139.888 226.119 178.548 55.3868 209.154 51.1051C239.761 46.8234 269.293 174.739 304.732 175.809C340.17 176.88 377.22 153.33 399.772 156.542C422.324 159.753 489.442 181.161 496.423 181.161C503.403 181.161 581.798 167.781 592 166.711" stroke="url(#paint7_linear_0_1)" stroke-width="5"/>
<ellipse cx="21.1667" cy="208" rx="9.16667" ry="10" fill="white"/>
<circle cx="117" cy="229" r="10" fill="white"/>
<circle cx="213" cy="52" r="10" fill="white"/>
<circle cx="308" cy="175" r="10" fill="white"/>
<circle cx="404" cy="157" r="10" fill="white"/>
<ellipse cx="499.167" cy="180" rx="9.16667" ry="10" fill="white"/>
<circle cx="596" cy="168" r="10" fill="white"/>
<defs>
<linearGradient id="paint0_linear_0_1" x1="22.5" y1="-2.18557e-08" x2="22.5" y2="308" gradientUnits="userSpaceOnUse">
<stop offset="0.134" stop-color="#999999" stop-opacity="0"/>
<stop offset="1" stop-color="#6A6B6D"/>
</linearGradient>
<linearGradient id="paint1_linear_0_1" x1="119.5" y1="-2.18557e-08" x2="119.5" y2="308" gradientUnits="userSpaceOnUse">
<stop offset="0.134" stop-color="#999999" stop-opacity="0"/>
<stop offset="1" stop-color="#6A6B6D"/>
</linearGradient>
<linearGradient id="paint2_linear_0_1" x1="215.5" y1="-2.18557e-08" x2="215.5" y2="308" gradientUnits="userSpaceOnUse">
<stop offset="0.134" stop-color="#999999" stop-opacity="0"/>
<stop offset="1" stop-color="#6A6B6D"/>
</linearGradient>
<linearGradient id="paint3_linear_0_1" x1="309.5" y1="-2.18557e-08" x2="309.5" y2="308" gradientUnits="userSpaceOnUse">
<stop offset="0.134" stop-color="#999999" stop-opacity="0"/>
<stop offset="1" stop-color="#6A6B6D"/>
</linearGradient>
<linearGradient id="paint4_linear_0_1" x1="406.5" y1="-2.18557e-08" x2="406.5" y2="308" gradientUnits="userSpaceOnUse">
<stop offset="0.134" stop-color="#999999" stop-opacity="0"/>
<stop offset="1" stop-color="#6A6B6D"/>
</linearGradient>
<linearGradient id="paint5_linear_0_1" x1="501.5" y1="-2.18557e-08" x2="501.5" y2="308" gradientUnits="userSpaceOnUse">
<stop offset="0.134" stop-color="#999999" stop-opacity="0"/>
<stop offset="1" stop-color="#6A6B6D"/>
</linearGradient>
<linearGradient id="paint6_linear_0_1" x1="598.5" y1="-2.18557e-08" x2="598.5" y2="308" gradientUnits="userSpaceOnUse">
<stop offset="0.134" stop-color="#999999" stop-opacity="0"/>
<stop offset="1" stop-color="#6A6B6D"/>
</linearGradient>
<linearGradient id="paint7_linear_0_1" x1="18" y1="140" x2="592" y2="140" gradientUnits="userSpaceOnUse">
<stop stop-color="#FFDEBD"/>
<stop offset="0.491" stop-color="#FF8CBC"/>
<stop offset="1" stop-color="#AB86D3"/>
</linearGradient>
</defs>
</svg>
